{"title":"Game Changers 2018 Movies 720p HDRip x264 AAC ESubs +Sample ☻rDX","magnet":"magnet:?xt=urn:btih:3501f30e329802b5988fd818fb1eb1d19d5491c3&dn=Game+Changers+2018+Movies+720p+HDRip+x264+AAC+ESubs+%2BSample+%E2%98%BBrDX&tr=udp%3A%2F%2Ftracker.leechers-paradise.org%3A6969&tr=udp%3A%2F%2Fzer0day.ch%3A1337&tr=udp%3A%2F%2Fopen.demonii.com%3A1337&tr=udp%3A%2F%2Ftracker.coppersurfer.tk%3A6969&tr=udp%3A%2F%2Fexodus.desync.com%3A6969","uploader":"basicssom","categoryP":"video","categoryS":"hd___movies","size":"824176646","seeders":"1","leechers":"32","description":"Game Changers 2018 Movies 720p HDRip x264 AAC ESubs with Sample &#x263B;rDX&#x263B;\r\n\r\nSCREEN SHOTS &amp; POSTER:\r\n   <a href=\"\nhttps://iphonehosting.eu/2018/9/a/home/index.html\" rel=\"nofollow\" target=\"_NEW\">\nhttps://iphonehosting.eu/2018/9/a/home/index.html</a> <a href=\"\nhttps://iphonehosting.eu/2018/9/a/home/1.html\" rel=\"nofollow\" target=\"_NEW\">\nhttps://iphonehosting.eu/2018/9/a/home/1.html</a> <a href=\"\nhttps://iphonehosting.eu/2018/9/a/home/2.html\" rel=\"nofollow\" target=\"_NEW\">\nhttps://iphonehosting.eu/2018/9/a/home/2.html</a>   <a href=\"\nhttps://iphonehosting.eu/2018/9/a/home/3.html\" rel=\"nofollow\" target=\"_NEW\">\nhttps://iphonehosting.eu/2018/9/a/home/3.html</a>   <a href=\"\nhttps://iphonehosting.eu/2018/9/a/home/4.html\" rel=\"nofollow\" target=\"_NEW\">\nhttps://iphonehosting.eu/2018/9/a/home/4.html</a>   <a href=\"\nhttps://iphonehosting.eu/2018/9/a/home/5.html\" rel=\"nofollow\" target=\"_NEW\">\nhttps://iphonehosting.eu/2018/9/a/home/5.html</a>   <a href=\"\nhttps://iphonehosting.eu/2018/9/a/home/6.html\" rel=\"nofollow\" target=\"_NEW\">\nhttps://iphonehosting.eu/2018/9/a/home/6.html</a>   <a href=\"\nhttps://iphonehosting.eu/2018/9/a/home/7.html\" rel=\"nofollow\" target=\"_NEW\">\nhttps://iphonehosting.eu/2018/9/a/home/7.html</a>   <a href=\"\nhttps://iphonehosting.eu/2018/9/a/home/8.html\" rel=\"nofollow\" target=\"_NEW\">\nhttps://iphonehosting.eu/2018/9/a/home/8.html</a>   <a href=\"\nhttps://iphonehosting.eu/2018/9/a/home/9.html\" rel=\"nofollow\" target=\"_NEW\">\nhttps://iphonehosting.eu/2018/9/a/home/9.html</a>   <a href=\"\nhttps://iphonehosting.eu/2018/9/a/home/10.html\" rel=\"nofollow\" target=\"_NEW\">\nhttps://iphonehosting.eu/2018/9/a/home/10.html</a>\r\n\r\nFile size                                : 778 MiB\r\nDuration                                 : 1 h 35 min\r\nOverall bit rate                         : 1 138 kb/s\r\nMovie name                               : Game Changers 2018 Movies 720p HDRip x264 AAC ESubs &#x263B;rDX&#x263B;\r\n\r\nVideo\r\nID                                       : 2\r\nFormat                                   : AVC\r\nFormat/Info                              : Advanced Video Codec\r\nFormat profile                           : Main@L3.1\r\nFormat settings, CABAC                   : Yes\r\nFormat settings, ReFrames                : 2 frames\r\nFormat settings, GOP                     : M=1, N=12\r\nCodec ID                                 : V_MPEG4/ISO/AVC\r\nDuration                                 : 1 h 35 min\r\nBit rate mode                            : Constant\r\nBit rate                                 : 1 075 kb/s\r\nWidth                                    : 1 280 pixels\r\nHeight                                   : 720 pixels\r\nDisplay aspect ratio                     : 16:9\r\nFrame rate mode                          : Constant\r\nFrame rate                               : 23.976 (24000/1001) FPS\r\nColor space                              : YUV\r\nChroma subsampling                       : 4:2:0\r\nBit depth                                : 8 bits\r\nScan type                                : Progressive\r\nBits/(Pixel*Frame)                       : 0.049\r\nStream size                              : 719 MiB (92%)\r\nTitle                                    : &#x263B;rDX&#x263B;\r\nDefault                                  : Yes\r\nForced                                   : No\r\n\r\nAudio\r\nID                                       : 1\r\nFormat                                   : MPEG Audio\r\nFormat version                           : Version 1\r\nFormat profile                           : Layer 3\r\nMode                                     : Joint stereo\r\nMode extension                           : MS Stereo\r\nCodec ID                                 : A_MPEG/L3\r\nCodec ID/Hint                            : MP3\r\nDuration                                 : 1 h 35 min\r\nBit rate mode                            : Constant\r\nBit rate                                 : 64.0 kb/s\r\nChannel(s)                               : 2 channels\r\nSampling rate                            : 44.1 kHz\r\nCompression mode                         : Lossy\r\nStream size                              : 43.7 MiB (6%)\r\nTitle                                    : &#x263B;rDX&#x263B;\r\nWriting library                          : LAME3.99.5&#xAA;&#xAA;&#xAA;&#xAA;&#xAA;&#xAA;&#xAA;&#x2020;&#xF8;\r\nDefault                                  : Yes\r\nForced                                   : No\r\n <a href=\"\nhttps://www.imdb.com/title/tt7539078/\" rel=\"nofollow\" target=\"_NEW\">\nhttps://www.imdb.com/title/tt7539078/</a>","last_updated":"2018-10-03T12:15:02.259Z","parsed":{"xt":"urn:btih:3501f30e329802b5988fd818fb1eb1d19d5491c3","dn":"Game Changers 2018 Movies 720p HDRip x264 AAC ESubs  Sample ☻rDX","tr":["udp://exodus.desync.com:6969","udp://open.demonii.com:1337","udp://tracker.coppersurfer.tk:6969","udp://tracker.leechers-paradise.org:6969","udp://zer0day.ch:1337"],"infoHash":"3501f30e329802b5988fd818fb1eb1d19d5491c3","infoHashBuffer":{"type":"Buffer","data":[53,1,243,14,50,152,2,181,152,143,216,24,251,30,177,209,157,84,145,195]},"name":"Game Changers 2018 Movies 720p HDRip x264 AAC ESubs  Sample ☻rDX","announce":["udp://exodus.desync.com:6969","udp://open.demonii.com:1337","udp://tracker.coppersurfer.tk:6969","udp://tracker.leechers-paradise.org:6969","udp://zer0day.ch:1337"],"urlList":[]}}